HIERARCHY
ROOT SpineBase
{
  OFFSET 0.000000 0.000000 0.000000
  CHANNELS 6 Xposition Yposition Zposition Zrotation Xrotation Yrotation
  JOINT SpineMid
  {
    OFFSET 0.000000 36.591485 0.000000
    CHANNELS 3 Zrotation Xrotation Yrotation
    JOINT SpineShoulder
    {
      OFFSET 0.153613 27.118521 -0.926487
      CHANNELS 3 Zrotation Xrotation Yrotation
      JOINT Neck
      {
        OFFSET 0.124118 8.953485 -0.713963
        CHANNELS 3 Zrotation Xrotation Yrotation
        JOINT Head
        {
          OFFSET 2.883774 11.148747 7.738752
          CHANNELS 3 Zrotation Xrotation Yrotation
          End Site
          {
            OFFSET 0 0 0
          }
        }
      }
      JOINT ShoulderLeft
      {
        OFFSET 2.491403 -5.677935 -13.976372
        CHANNELS 3 Zrotation Xrotation Yrotation
        JOINT ElbowLeft
        {
          OFFSET 11.960977 -23.516210 -6.643682
          CHANNELS 3 Zrotation Xrotation Yrotation
          JOINT WristLeft
          {
            OFFSET 10.521539 -23.685835 2.320800
            CHANNELS 3 Zrotation Xrotation Yrotation
            JOINT HandLeft
            {
              OFFSET 2.368724 -8.739536 2.212223
              CHANNELS 3 Zrotation Xrotation Yrotation
              JOINT HandTipLeft
              {
                OFFSET 4.066665 -6.772207 0.613804
                CHANNELS 3 Zrotation Xrotation Yrotation
                End Site
                {
                  OFFSET 0 0 0
                }
              }
              JOINT ThumbLeft
              {
                OFFSET 2.068216 2.763362 -3.119283
                CHANNELS 3 Zrotation Xrotation Yrotation
                End Site
                {
                  OFFSET 0 0 0
                }
              }
            }
          }
        }
      }
      JOINT ShoulderRight
      {
        OFFSET 17.377648 -9.046371 -15.594083
        CHANNELS 3 Zrotation Xrotation Yrotation
        JOINT ElbowRight
        {
          OFFSET 3.744569 -26.324331 -2.612738
          CHANNELS 3 Zrotation Xrotation Yrotation
          JOINT WristRight
          {
            OFFSET 8.983246 -24.281212 2.491427
            CHANNELS 3 Zrotation Xrotation Yrotation
            JOINT HandRight
            {
              OFFSET -0.570341 -4.657266 -0.334086
              CHANNELS 3 Zrotation Xrotation Yrotation
              JOINT HandTipRight
              {
                OFFSET 2.817286 -6.034768 1.560641
                CHANNELS 3 Zrotation Xrotation Yrotation
                End Site
                {
                  OFFSET 0 0 0
                }
              }
              JOINT ThumbRight
              {
                OFFSET -1.049602 -1.055511 -3.212526
                CHANNELS 3 Zrotation Xrotation Yrotation
                End Site
                {
                  OFFSET 0 0 0
                }
              }
            }
          }
        }
      }
    }
  }
  JOINT HipLeft
  {
    OFFSET -4.281912 1.290415 -6.940430
    CHANNELS 3 Zrotation Xrotation Yrotation
    JOINT KneeLeft
    {
      OFFSET 24.241927 -35.835914 -5.542336
      CHANNELS 3 Zrotation Xrotation Yrotation
      JOINT AnkleLeft
      {
        OFFSET 0.300662 -35.745960 -5.333897
        CHANNELS 3 Zrotation Xrotation Yrotation
        JOINT FootLeft
        {
          OFFSET 4.748507 -5.552524 1.115674
          CHANNELS 3 Zrotation Xrotation Yrotation
          End Site
          {
            OFFSET 0 0 0
          }
        }
      }
    }
  }
  JOINT HipRight
  {
    OFFSET 5.458434 1.512889 -1.207697
    CHANNELS 3 Zrotation Xrotation Yrotation
    JOINT KneeRight
    {
      OFFSET 2.406691 -40.867943 0.640543
      CHANNELS 3 Zrotation Xrotation Yrotation
      JOINT AnkleRight
      {
        OFFSET -0.389530 -34.323594 -0.561043
        CHANNELS 3 Zrotation Xrotation Yrotation
        JOINT FootRight
        {
          OFFSET 5.422397 -5.471529 -7.596090
          CHANNELS 3 Zrotation Xrotation Yrotation
          End Site
          {
            OFFSET 0 0 0
          }
        }
      }
    }
  }
}
MOTION
Frames: 12
Frame Time: 0.033333
-43.009862 79.503364 299.034501 -0.000000 0.000000 -30.479169 -0.000000 0.000000 30.479169 -0.000000 0.000000 0.000000 -0.000000 0.000000 0.000000 0.000000 0.000000 0.000000 -0.000000 0.000000 0.000000 -0.000000 0.000000 0.000000 -0.000000 0.000000 0.000000 -0.000000 0.000000 0.000000 0.000000 0.000000 0.000000 0.000000 0.000000 0.000000 -0.000000 0.000000 0.000000 -0.000000 0.000000 0.000000 -0.000000 0.000000 0.000000 -0.000000 0.000000 0.000000 0.000000 0.000000 0.000000 0.000000 0.000000 0.000000 -0.000000 0.000000 30.479169 -0.000000 0.000000 0.000000 -0.000000 0.000000 0.000000 0.000000 0.000000 0.000000 -0.000000 0.000000 30.479169 -0.000000 0.000000 0.000000 -0.000000 0.000000 0.000000 0.000000 0.000000 0.000000
-42.969488 79.488166 299.112280 -0.040063 0.062887 -30.543756 0.066463 -0.033801 30.543798 -0.000000 0.000000 0.000000 -0.881832 0.414970 0.505698 0.000000 0.000000 0.000000 -0.000000 0.000000 0.000000 -0.000000 0.000000 0.000000 -0.664419 -0.920056 -0.422696 2.037963 1.696216 0.959632 0.000000 0.000000 0.000000 0.000000 0.000000 0.000000 -0.000000 0.000000 0.000000 -0.000000 0.000000 0.000000 0.741620 -1.239092 0.106735 -1.102290 2.145503 0.249344 0.000000 0.000000 0.000000 0.000000 0.000000 0.000000 0.066463 -0.033801 30.543798 -0.000000 0.000000 0.000000 -0.000000 0.000000 0.000000 0.000000 0.000000 0.000000 -0.273628 -1.077836 30.484798 1.650008 1.601907 0.010217 0.289097 1.967877 1.218812 0.000000 0.000000 0.000000
-42.921757 79.474679 299.188187 -0.070095 0.125133 -30.555102 0.123976 -0.072123 30.555257 -0.000000 0.000000 0.000000 -1.613127 0.837706 0.906986 0.000000 0.000000 0.000000 -0.000000 0.000000 0.000000 -0.000000 0.000000 0.000000 -1.236715 -1.592729 -0.761501 3.529517 3.071365 1.693953 0.000000 0.000000 0.000000 0.000000 0.000000 0.000000 -0.000000 0.000000 0.000000 -0.000000 0.000000 0.000000 1.164812 -1.985895 0.180300 -1.643719 3.665457 0.543720 0.000000 0.000000 0.000000 0.000000 0.000000 0.000000 0.123976 -0.072123 30.555257 -0.000000 0.000000 0.000000 -0.747045 0.349654 0.152139 0.000000 0.000000 0.000000 -0.493786 -1.936400 30.445115 2.947440 2.871280 -0.012719 0.473447 3.315518 1.989976 0.000000 0.000000 0.000000
-42.866671 79.462904 299.262221 -0.090123 0.186742 -30.513257 0.172458 -0.115121 30.513577 -0.000000 0.000000 0.000000 -2.204480 1.275330 1.209632 0.000000 0.000000 0.000000 -0.000000 0.000000 0.000000 -0.000000 0.000000 0.000000 -1.683284 -1.972929 -0.989493 4.489288 4.070353 2.238737 0.000000 0.000000 0.000000 0.000000 0.000000 0.000000 -0.000000 0.000000 0.000000 -0.000000 0.000000 0.000000 1.283778 -2.267263 0.211591 -1.630414 4.578666 0.850712 0.000000 0.000000 0.000000 0.000000 0.000000 0.000000 0.172458 -0.115121 30.513577 -0.000000 0.000000 0.000000 -0.991889 0.395374 0.143401 0.000000 0.000000 0.000000 -0.664615 -2.582185 30.362660 3.891309 3.805211 -0.045701 0.611683 4.071482 2.348512 0.000000 0.000000 0.000000
-42.804229 79.452840 299.334383 -0.100170 0.247717 -30.418101 0.211803 -0.162902 30.418619 -0.000000 0.000000 0.000000 -2.663596 1.734327 1.417425 0.000000 0.000000 0.000000 -0.000000 0.000000 0.000000 0.851596 -0.319463 -0.055893 -2.826573 -1.714216 -1.014523 4.920646 4.658235 2.617580 0.000000 0.000000 0.000000 0.000000 0.000000 0.000000 -0.000000 0.000000 0.000000 -0.000000 0.000000 0.000000 1.106113 -2.097635 0.198307 -1.060751 4.893921 1.159987 0.000000 0.000000 0.000000 0.000000 0.000000 0.000000 0.211803 -0.162902 30.418619 -0.000000 0.000000 0.000000 -1.151012 0.355491 0.077015 0.000000 0.000000 0.000000 -0.788682 -3.020260 30.239148 4.480087 4.402163 -0.071871 0.739621 4.259368 2.315464 0.000000 0.000000 0.000000
-42.734432 79.444489 299.404673 -0.100260 0.308062 -30.269344 0.241876 -0.215524 30.270068 -0.000000 0.000000 0.000000 -2.995447 2.220835 1.532205 0.000000 0.000000 0.000000 -0.000000 0.000000 0.000000 0.875235 -0.428585 -0.100971 -2.974558 -1.331760 -0.917954 4.820132 4.824321 2.841628 0.000000 0.000000 0.000000 0.000000 0.000000 0.000000 -0.000000 0.000000 0.000000 -0.000000 0.000000 0.000000 0.633185 -1.479295 0.144152 0.072395 4.609894 1.483023 0.000000 0.000000 0.000000 0.000000 0.000000 0.000000 0.241876 -0.215524 30.270068 -0.000000 0.000000 0.000000 -1.224550 0.229798 -0.047534 0.000000 0.000000 0.000000 -0.867035 -3.254077 30.075606 4.712393 4.661143 -0.080760 0.870791 3.888386 1.897160 0.000000 0.000000 0.000000
-42.625858 79.432349 299.467062 -0.066357 0.376609 -29.972397 0.245633 -0.293091 29.973244 -0.000000 0.000000 0.000000 -3.102212 2.718272 1.489214 0.000000 0.000000 0.000000 -0.000000 0.000000 0.000000 0.717662 -0.609455 -0.195946 -2.596686 -0.373538 -0.534264 3.488949 4.262641 2.737595 0.000000 0.000000 0.000000 0.000000 0.000000 0.000000 -0.000000 0.000000 0.000000 -0.000000 0.000000 0.000000 -0.000000 0.000000 0.000000 2.788542 3.145700 2.104408 0.000000 0.000000 0.000000 0.000000 0.000000 0.000000 0.245633 -0.293091 29.973244 -0.000000 0.000000 0.000000 -0.000000 0.000000 0.000000 0.000000 0.000000 0.000000 -0.824910 -3.022058 29.798452 4.021251 4.079397 -0.036161 1.922117 3.132745 0.217179 0.000000 0.000000 0.000000
-42.527955 79.431666 299.529899 -0.038032 0.437069 -29.720657 0.249719 -0.360717 29.721588 -0.000000 0.000000 0.000000 -3.164258 3.322495 1.391116 0.000000 0.000000 0.000000 -0.000000 0.000000 0.000000 0.481586 -0.719866 -0.268897 -1.454571 0.961980 0.111101 0.473520 3.824389 2.611781 0.000000 0.000000 0.000000 0.000000 0.000000 0.000000 -0.000000 0.000000 0.000000 -0.000000 0.000000 0.000000 -4.325399 5.027803 -0.114800 9.176606 -2.524370 3.163832 0.000000 0.000000 0.000000 0.000000 0.000000 0.000000 0.249719 -0.360717 29.721588 -0.000000 0.000000 0.000000 -0.000000 0.000000 0.000000 0.000000 0.000000 0.000000 -0.820910 -2.831685 29.562706 3.497773 3.600941 -0.007210 1.209677 -1.686033 -3.074548 0.000000 0.000000 0.000000
-42.449382 79.429151 299.600760 -0.019521 0.476739 -29.387922 0.250959 -0.405810 29.388892 -0.000000 0.000000 0.000000 -3.214233 4.161139 1.231647 0.000000 0.000000 0.000000 -0.000000 0.000000 0.000000 0.439044 -0.961520 -0.379467 -1.012133 2.494018 0.681794 -1.436615 3.586034 2.701122 0.000000 0.000000 0.000000 0.000000 0.000000 0.000000 -0.000000 0.000000 0.000000 -0.000000 0.000000 0.000000 -5.254996 6.228439 -0.099220 11.966063 -5.073581 3.465637 0.000000 0.000000 0.000000 0.000000 0.000000 0.000000 0.250959 -0.405810 29.388892 -0.000000 0.000000 0.000000 -0.885331 -0.898804 -0.958309 0.000000 0.000000 0.000000 -0.714411 -2.271581 29.270865 2.412739 2.560405 0.029727 1.150746 -6.094917 -7.314035 0.000000 0.000000 0.000000
-42.394636 79.434647 299.684321 -0.015544 0.519583 -29.038241 0.265797 -0.446722 29.039347 -0.000000 0.000000 0.000000 -3.165163 4.645202 1.085470 0.000000 0.000000 0.000000 -0.000000 0.000000 0.000000 0.390664 -0.889802 -0.353152 -1.706541 2.711255 0.569824 0.757847 2.836408 2.630604 0.000000 0.000000 0.000000 0.000000 0.000000 0.000000 -0.000000 0.000000 0.000000 -0.000000 0.000000 0.000000 -2.606098 3.419495 -0.153345 8.054591 -1.721483 2.690075 0.000000 0.000000 0.000000 0.000000 0.000000 0.000000 -0.517854 -0.539383 29.349246 0.728447 -0.303346 -0.314714 -1.250322 -1.247312 -1.341110 0.000000 0.000000 0.000000 0.265797 -0.446722 29.039347 -1.011714 -0.114800 0.016825 -0.825811 -6.336013 -4.378441 0.000000 0.000000 0.000000
-42.387160 79.429155 299.785624 -0.037189 0.546013 -28.860332 0.296124 -0.460245 28.861699 -0.000000 0.000000 0.000000 -3.104871 5.177398 0.920660 0.000000 0.000000 0.000000 -0.000000 0.000000 0.000000 0.283458 -0.802615 -0.326195 -1.644750 2.653820 0.536325 -0.047405 2.767666 2.550909 0.000000 0.000000 0.000000 0.000000 0.000000 0.000000 -1.211285 1.070062 0.283920 1.206180 -1.075813 -0.261283 1.431846 -1.575947 0.110260 3.510329 3.259114 1.754905 0.000000 0.000000 0.000000 0.000000 0.000000 0.000000 -0.509289 -0.455852 29.230948 0.700671 -0.397159 -0.373260 -1.072682 -1.324304 -1.368244 0.000000 0.000000 0.000000 0.322665 0.860135 28.939293 -2.949577 -2.341900 -0.102848 -0.448827 -6.543883 -4.641905 0.000000 0.000000 0.000000
-42.391282 79.424021 299.889282 -0.063198 0.578189 -28.812511 0.334039 -0.476149 28.814218 -0.000000 0.000000 0.000000 -2.948141 5.353317 0.768923 0.000000 0.000000 0.000000 -0.000000 0.000000 0.000000 -0.000000 0.000000 0.000000 -1.207969 1.349316 0.074608 -0.455192 2.958978 2.444281 0.000000 0.000000 0.000000 0.000000 0.000000 0.000000 -2.386846 2.197233 0.595927 2.365647 -2.220043 -0.504305 6.739166 -7.738225 0.932633 -1.757864 10.980284 1.896035 0.000000 0.000000 0.000000 0.000000 0.000000 0.000000 -0.464156 -0.400573 29.217003 0.659726 -0.455587 -0.406269 -0.831198 -1.405971 -1.384768 0.000000 0.000000 0.000000 0.775104 2.158686 28.957081 -5.043416 -4.197605 -0.286112 1.313535 -4.502837 -4.326817 0.000000 0.000000 0.000000
